# AST/ASF file generated using VICON BodyLanguage
# -----------------------------------------------
:version 1.10
:name VICON
:units
  mass 1.0
  length 0.45
  angle deg
:documentation
   .ast/.asf automatically generated from VICON data using
   VICON BodyBuilder and BodyLanguage model FoxedUp or BRILLIANT.MOD
:root
   order TX TY TZ RX RY RZ
   axis XYZ
   position 0 0 0  
   orientation 0 0 0 
:bonedata
  begin
     id 1 
     name lhipjoint
     direction 0.588788 -0.725889 0.355548 
     length 2.37778 
     axis 0 0 0  XYZ
  end
  begin
     id 2 
     name lfemur
     direction 0.34202 -0.939693 0  
     length 6.86393  
     axis 0 0 20  XYZ
    dof rx ry rz
    limits (-160.0 20.0)
           (-70.0 70.0)
           (-60.0 70.0)
  end
  begin
     id 3 
     name ltibia
     direction 0.34202 -0.939693 0   
     length 7.32851   
     axis 0 0 20   XYZ
    dof rx
    limits (-10.0 170.0)
  end
  begin
     id 4 
     name lfoot
     direction 0.0626533 -0.172138 0.983078   
     length 1.98929   
     axis -90 7.62852e-016 20   XYZ
    dof rx rz
    limits (-45.0 90.0)
           (-70.0 20.0)
  end
  begin
     id 5 
     name ltoes
     direction 1.53647e-011 -4.21734e-011 1   
     length 1.00479   
     axis -90 7.62852e-016 20   XYZ
    dof rx
    limits (-90.0 20.0)
  end
  begin
     id 6 
     name rhipjoint
     direction -0.59141 -0.724168 0.354705   
     length 2.38343  
     axis 0 0 0  XYZ 
  end
  begin
     id 7 
     name rfemur
     direction -0.34202 -0.939693 0   
     length 6.95589   
     axis 0 0 -20   XYZ
    dof rx ry rz
    limits (-160.0 20.0)
           (-70.0 70.0)
           (-70.0 60.0)
  end
  begin
     id 8 
     name rtibia
     direction -0.34202 -0.939693 0   
     length 7.32327   
     axis 0 0 -20   XYZ
    dof rx
    limits (-10.0 170.0)
 end
 begin
     id 9 
     name rfoot
     direction -0.0660461 -0.18146 0.981178   
     length 1.85272  
     axis -90 -7.62852e-016 -20   XYZ
    dof rx rz
    limits (-45.0 90.0)
           (-20.0 70.0)
  end
  begin
     id 10 
     name rtoes
     direction -1.53586e-011 -4.21988e-011 1   
     length 0.93746   
     axis -90 -7.62852e-016 -20   XYZ
    dof rx
    limits (-90.0 20.0)
  end
  begin
     id 11 
     name lowerback
     direction -0.0107982 0.991059 0.13299   
     length 1.98691   
     axis 0 0 0   XYZ
    dof rx ry rz
    limits (-20.0 45.0)
           (-30.0 30.0)
           (-30.0 30.0)
  end
  begin
     id 12 
     name upperback
     direction 0.0076296 0.999916 0.0104576   
     length 1.99501   
     axis 0 0 0   XYZ
    dof rx ry rz
    limits (-20.0 45.0)
           (-30.0 30.0)
           (-30.0 30.0)
  end
  begin
     id 13 
     name thorax
     direction 0.01176 0.998615 -0.0512909   
     length 2.03144   
     axis 0 0 0   XYZ
    dof rx ry rz
    limits (-20.0 45.0)
           (-30.0 30.0)
           (-30.0 30.0)
  end
  begin
     id 14 
     name lowerneck
     direction -0.0171909 0.999644 0.0204011   
     length 1.71818   
     axis 0 0 0   XYZ
    dof rx ry rz
    limits (-20.0 45.0)
           (-30.0 30.0)
           (-30.0 30.0)
  end
  begin
     id 15 
     name upperneck
     direction 0.0250902 0.997482 -0.0663316   
     length 1.66199   
     axis 0 0 0   XYZ
    dof rx ry rz
    limits (-20.0 45.0)
           (-30.0 30.0)
           (-30.0 30.0)
  end
  begin
     id 16
     name head
     direction 0.00881535 0.99956 -0.0283365  
     length 1.81545  
     axis 0 0 0   XYZ
    dof rx ry rz
    limits (-20.0 45.0)
           (-30.0 30.0)
           (-30.0 30.0)
  end
  begin
     id 17 
     name lclavicle
     direction 0.840411 0.486876 -0.238035  
     length 3.30409  
     axis 0 0 0   XYZ
    dof ry rz
    limits (-20.0 10.0)
           (0.0 20.0)
  end
  begin
     id 18 
     name lhumerus
     direction 1 -4.48977e-011 -5.16239e-027   
     length 4.62672   
     axis 180 -30 -90   XYZ
    dof rx ry rz
    limits (-60.0 90.0)
           (-90.0 90.0)
           (-90.0 90.0)
  end
  begin
     id 19
     name lradius
     direction 1 -4.48977e-011 -8.71171e-027   
     length 3.11018   
     axis 180 -30 -90   XYZ
    dof rx
    limits (-10.0 170.0)
  end
  begin
     id 20
     name lwrist
     direction 1 -4.48912e-011 -1.03764e-026   
     length 1.55509   
     axis 9.09556e-015 90 90   XYZ
    dof ry
    limits (-180.0 0.0)
 end
  begin
     id 21 
     name lhand
     direction 1 -4.49072e-011 -2.07528e-026   
     length 0.743834   
     axis 1.3242e-014 90 90   XYZ
    dof rx rz
    limits (-90.0 90.0)
           (-45.0 45.0)
  end
  begin
     id 22 
     name lfingers
     direction 1 -4.48909e-011 -4.15056e-026   
     length 0.599698   
     axis 2.64841e-014 90 90   XYZ
    dof rx
    limits (0.0 90.0)
  end
  begin
     id 23
     name lthumb
     direction 0.707107 -6.35013e-011 0.707107   
     length 0.86105   
     axis -90 45 2.85299e-015   XYZ
    dof rx rz
    limits (-45.0 45.0)
           (-45.0 45.0)
  end
  begin
     id 24 
     name rclavicle
     direction -0.835208 0.500237 -0.228452   
     length 3.2716  
     axis 0 0 0   XYZ 
    dof ry rz
    limits (-10.0 20.0)
           (-20.0 0.0)
  end
  begin
     id 25 
     name rhumerus
     direction -1 -4.48978e-011 -5.1953e-028  
     length 4.55919   
     axis 180 30 90   XYZ
    dof rx ry rz
    limits (-90.0 60.0)
           (-90.0 90.0)
           (-90.0 90.0)
  end
  begin
     id 26 
     name rradius
     direction -1 -4.48961e-011 -5.99546e-027   
     length 3.22748   
     axis 180 30 90   XYZ
    dof rx
    limits (-10.0 170.0)
  end
  begin
     id 27 
     name rwrist
     direction -1 -4.48986e-011 -1.03764e-026   
     length 1.61374   
     axis 9.09556e-015 -90 -90   XYZ
    dof ry
    limits (-180.0 0.0)
  end
  begin
     id 28
     name rhand
     direction -1 -4.4899e-011 -2.07528e-026   
     length 0.700882   
     axis 1.3242e-014 -90 -90   XYZ
    dof rx rz
    limits (-90.0 90.0)
           (-45.0 45.0)
  end
  begin
     id 29
     name rfingers
     direction -1 -4.48991e-011 -4.15056e-026   
     length 0.565069   
     axis 2.64841e-014 -90 -90   XYZ
    dof rx
    limits (0.0 90.0)
  end
  begin
     id 30
     name rthumb
     direction -0.707107 -6.34804e-011 0.707107   
     length 0.811329   
     axis -90 -45 -2.85299e-015   XYZ
    dof rx rz
    limits (-45.0 45.0)
           (-45.0 45.0)
  end
:hierarchy
  begin
    root lhipjoint rhipjoint lowerback
    lhipjoint lfemur
    lfemur ltibia
    ltibia lfoot
    lfoot ltoes
    rhipjoint rfemur
    rfemur rtibia
    rtibia rfoot
    rfoot rtoes
    lowerback upperback
    upperback thorax
    thorax lowerneck lclavicle rclavicle
    lowerneck upperneck
    upperneck head
    lclavicle lhumerus
    lhumerus lradius
    lradius lwrist
    lwrist lhand lthumb
    lhand lfingers
    rclavicle rhumerus
    rhumerus rradius
    rradius rwrist
    rwrist rhand rthumb
    rhand rfingers
  end

#!OML:ASF F:\VICON\USERDATA\INSTALL\SteveWalk\SteveWalk.ASF
:FULLY-SPECIFIED
:DEGREES
209
root -0.0649407 15.9889 5.63136 17.4904 5.3169 -0.348317
lowerback -15.348 -2.03035 3.13784
upperback -5.48514 -3.21576 2.21791
thorax 2.7345 -1.60103 -0.00121028
lowerneck -6.4505 -0.470342 -1.10684
upperneck 9.58937 -0.354553 -1.55685
head 4.31178 -0.293599 -0.346535
rclavicle -2.24968e-014 5.56597e-015
rhumerus -100.298 -37.6124 17.7601
rradius 10.5505
rwrist 74.0577
rhand -14.145 -35.0583
rfingers 7.12502
rthumb 11.9893 -64.6949
lclavicle -2.24968e-014 5.56597e-015
lhumerus -23.4098 -6.38089 85.7374
lradius 61.1998
lwrist 13.8337
lhand -24.7753 -20.9717
lfingers 7.12502
lthumb 1.72858 9.00103
rfemur -50.8497 -1.56807 23.9043
rtibia 35.9545
rfoot -7.12604 3.67549
rtoes -15.3899
lfemur -4.87557 -1.15831 -19.4363
ltibia 40.7387
lfoot 7.08664 -14.5193
ltoes -12.0928
210
root -0.0655514 16.0135 5.85548 17.4077 5.26764 -0.671421
lowerback -15.1684 -1.94502 3.6518
upperback -5.44467 -3.17441 2.31054
thorax 2.65787 -1.58437 -0.178808
lowerneck -6.46918 -0.431875 -1.02057
upperneck 9.321 -0.29942 -1.71828
head 4.21876 -0.268827 -0.411436
rclavicle -3.5373e-014 7.15625e-015
rhumerus -100.438 -38.4075 17.8425
rradius 10.5456
rwrist 74.0752
rhand -14.4312 -34.9501
rfingers 7.12502
rthumb 11.7133 -64.6026
lclavicle -3.5373e-014 7.15625e-015
lhumerus -24.2667 -6.07399 85.8366
lradius 61.0387
lwrist 14.3384
lhand -24.6884 -21.1813
lfingers 7.12502
lthumb 1.81248 8.79073
rfemur -50.2872 -1.66161 24.5088
rtibia 36.689
rfoot -7.11802 3.82894
rtoes -10.1501
lfemur -6.43894 -1.22732 -19.027
ltibia 43.8999
lfoot 10.6878 -14.7785
ltoes -13.2011
211
root -0.0606254 16.0439 6.08663 17.3082 5.34266 -0.877376
lowerback -15.098 -1.9113 4.03173
upperback -5.47411 -3.1822 2.3964
thorax 2.57175 -1.59198 -0.299087
lowerneck -6.1095 -0.38025 -0.854697
upperneck 9.02839 -0.231797 -1.98649
head 4.04204 -0.23794 -0.523285
rclavicle 2.27546e-014 4.77083e-015
rhumerus -100.66 -39.0183 18.1456
rradius 10.4848
rwrist 74.1807
rhand -14.7571 -34.3441
rfingers 7.12502
rthumb 11.399 -64.0142
lclavicle 2.27546e-014 4.77083e-015
lhumerus -25.3491 -5.84347 86.0568
lradius 60.8122
lwrist 14.8339
lhand -24.6628 -21.1647
lfingers 7.12502
lthumb 1.83726 8.80711
rfemur -49.573 -2.14632 25.118
rtibia 37.2574
rfoot -7.50865 4.17103
rtoes -11.8942
lfemur -7.96284 -1.42388 -18.7513
ltibia 46.9319
lfoot 13.949 -14.9953
ltoes -14.7267
212
root -0.0650946 16.079 6.32031 17.1157 5.45964 -1.15114
lowerback -14.8848 -1.84494 4.31336
upperback -5.54922 -3.12149 2.49454
thorax 2.36981 -1.56779 -0.333526
lowerneck -5.89112 -0.438056 -0.68756
upperneck 9.04596 -0.309433 -2.189
head 4.00419 -0.278902 -0.62362
rclavicle -3.02494e-014 2.38542e-015
rhumerus -100.474 -39.6503 17.615
rradius 10.4543
rwrist 73.4221
rhand -14.8813 -34.0769
rfingers 7.12502
rthumb 11.2793 -63.7537
lclavicle -3.02494e-014 2.38542e-015
lhumerus -26.589 -5.78473 86.424
lradius 60.4227
lwrist 15.1643
lhand -24.6531 -20.9027
lfingers 7.12502
lthumb 1.84664 9.06907
rfemur -48.6553 -2.51542 25.7598
rtibia 37.6734
rfoot -8.3132 4.67848
rtoes -12.8545
lfemur -9.37744 -1.59944 -18.3423
ltibia 49.837
lfoot 16.6471 -14.9122
ltoes -16.6806
213
root -0.0763033 16.1056 6.54296 16.8637 5.5137 -1.30007
lowerback -14.5169 -1.7545 4.40096
upperback -5.57021 -2.9918 2.53476
thorax 2.15277 -1.5083 -0.305315
lowerneck -5.70101 -0.552822 -0.778743
upperneck 8.99943 -0.470768 -2.06522
head 3.94844 -0.354644 -0.573114
rclavicle -1.90461e-014 1.66979e-014
rhumerus -98.5908 -40.5799 14.1922
rradius 10.5993
rwrist 70.6
rhand -14.5981 -35.0186
rfingers 7.12502
rthumb 11.5524 -64.6802
lclavicle -1.90461e-014 1.66979e-014
lhumerus -27.5346 -5.84894 86.8514
lradius 59.6413
lwrist 15.4714
lhand -24.7859 -20.2684
lfingers 7.12502
lthumb 1.71833 9.70438
rfemur -47.6552 -2.63013 26.109
rtibia 37.9635
rfoot -8.95678 5.01335
rtoes -12.3652
lfemur -10.6919 -1.66351 -18.0352
ltibia 52.6335
lfoot 18.3675 -14.9529
ltoes -19.5933
214
root -0.0817427 16.1374 6.76392 16.74 5.57357 -1.30276
lowerback -14.4421 -1.64997 4.39539
upperback -5.47675 -2.8528 2.53968
thorax 2.21654 -1.43659 -0.275071
lowerneck -5.70561 -0.661168 -1.02869
upperneck 8.94604 -0.619202 -1.79643
head 3.93036 -0.423857 -0.446796
rclavicle 1.41945e-014 -7.95139e-016
rhumerus -95.8597 -41.6257 9.53944
rradius 10.8189
rwrist 66.9349
rhand -14.4999 -35.7024
rfingers 7.12502
rthumb 11.647 -65.3587
lclavicle 1.41945e-014 -7.95139e-016
lhumerus -28.0591 -5.83213 87.3434
lradius 58.488
lwrist 15.5939
lhand -24.7841 -19.7674
lfingers 7.12502
lthumb 1.72013 10.2054
rfemur -46.7264 -2.81251 26.2463
rtibia 38.1384
rfoot -9.70496 4.97666
rtoes -11.46
lfemur -12.2479 -1.64854 -17.9259
ltibia 55.3402
lfoot 20.0864 -14.6898
ltoes -21.7016
215
root -0.083247 16.1752 6.98657 16.7559 5.704 -1.45906
lowerback -14.5346 -1.50019 4.61747
upperback -5.42233 -2.69364 2.5535
thorax 2.3181 -1.35613 -0.364191
lowerneck -5.89931 -0.778103 -1.1488
upperneck 9.03959 -0.776413 -1.62148
head 4.00249 -0.499264 -0.377471
rclavicle -1.27688e-014 2.22639e-014
rhumerus -93.2963 -42.5855 5.30798
rradius 10.9608
rwrist 63.652
rhand -14.5673 -35.6539
rfingers 7.12502
rthumb 11.582 -65.3139
lclavicle -1.27688e-014 2.22639e-014
lhumerus -28.506 -5.83091 87.7883
lradius 57.2415
lwrist 15.5514
lhand -24.579 -19.5121
lfingers 7.12502
lthumb 1.91816 10.459
rfemur -45.8696 -3.04629 26.5703
rtibia 38.2356
rfoot -10.7122 4.80666
rtoes -11.2095
lfemur -14.0406 -1.49983 -17.6772
ltibia 57.9687
lfoot 20.723 -14.2705
ltoes -23.7989
216
root -0.092956 16.2031 7.20322 16.8094 5.66939 -1.65265
lowerback -14.5773 -1.31677 4.72871
upperback -5.46016 -2.46764 2.56281
thorax 2.30455 -1.24503 -0.381572
lowerneck -5.97171 -0.879978 -1.04868
upperneck 9.21947 -0.917842 -1.63286
head 4.08013 -0.5679 -0.408369
rclavicle 1.34987e-014 8.74653e-015
rhumerus -92.2074 -43.532 3.40902
rradius 10.9341
rwrist 62.2719
rhand -14.5741 -35.7236
rfingers 7.12502
rthumb 11.5755 -65.3839
lclavicle 1.34987e-014 8.74653e-015
lhumerus -28.9864 -5.92483 88.144
lradius 55.7678
lwrist 15.4329
lhand -24.47 -19.53
lfingers 7.12502
lthumb 2.02342 10.4401
rfemur -45.0394 -2.9047 26.8622
rtibia 38.2387
rfoot -11.5443 4.47334
rtoes -11.7893
lfemur -15.822 -1.12217 -17.3976
ltibia 60.4974
lfoot 19.0756 -14.3862
ltoes -25.9908
217
root -0.108419 16.2325 7.42009 16.8734 5.51578 -1.58907
lowerback -14.79 -1.18621 4.36237
upperback -5.40494 -2.26188 2.58193
thorax 2.50148 -1.13494 -0.130759
lowerneck -5.97393 -0.926829 -0.915151
upperneck 9.29245 -0.978883 -1.77223
head 4.10514 -0.600383 -0.482475
rclavicle 1.11816e-014 -1.35174e-014
rhumerus -90.4674 -44.627 0.768437
rradius 10.979
rwrist 60.4805
rhand -14.4339 -36.0001
rfingers 7.12502
rthumb 11.7107 -65.6527
lclavicle 1.11816e-014 -1.35174e-014
lhumerus -29.3338 -5.83586 88.5377
lradius 54.0857
lwrist 15.1221
lhand -24.2003 -19.5519
lfingers 7.12502
lthumb 2.28387 10.4156
rfemur -44.1598 -2.66465 26.837
rtibia 38.1507
rfoot -12.2277 4.11661
rtoes -11.9625
lfemur -17.6782 -0.668753 -17.3946
ltibia 62.8728
lfoot 17.4969 -13.7244
ltoes -24.7952
218
root -0.118892 16.2639 7.63294 16.8829 5.5438 -1.71059
lowerback -14.8482 -1.09143 4.24306
upperback -5.39271 -2.12812 2.69412
thorax 2.55903 -1.06527 0.0736641
lowerneck -5.78281 -0.994538 -0.987074
upperneck 9.15964 -1.06416 -1.81265
head 4.0193 -0.644985 -0.485039
rclavicle -6.39528e-015 1.90833e-014
rhumerus -88.0299 -45.5358 -2.61236
rradius 11.1056
rwrist 58.4208
rhand -14.2357 -35.8814
rfingers 7.12502
rthumb 11.9018 -65.5231
lclavicle -6.39528e-015 1.90833e-014
lhumerus -29.809 -5.56739 88.9696
lradius 52.4106
lwrist 14.6756
lhand -23.7448 -19.2359
lfingers 7.12502
lthumb 2.72386 10.7265
rfemur -43.1803 -2.69646 27.085
rtibia 38.018
rfoot -13.0594 3.84544
rtoes -12.588
lfemur -19.624 -0.27021 -17.1844
ltibia 65.0833
lfoot 15.9197 -12.2998
ltoes -21.956
219
root -0.125264 16.2891 7.83772 16.9964 5.5503 -1.9874
lowerback -14.7795 -0.960527 4.37872
upperback -5.53276 -1.96695 2.81551
thorax 2.37804 -0.989527 0.15479
lowerneck -5.70323 -1.0758 -1.16003
upperneck 9.28352 -1.16622 -1.70898
head 4.04888 -0.697413 -0.425682
rclavicle -2.24689e-014 7.95139e-015
rhumerus -88.5417 -46.6018 -1.69415
rradius 10.9889
rwrist 59.7084
rhand -14.5386 -34.6499
rfingers 7.12502
rthumb 11.6098 -64.3083
lclavicle -2.24689e-014 7.95139e-015
lhumerus -30.4657 -5.29771 89.3258
lradius 50.6699
lwrist 14.1272
lhand -23.4275 -18.9772
lfingers 7.12502
lthumb 3.03028 10.981
rfemur -42.3601 -2.74051 27.5023
rtibia 37.8376
rfoot -13.7607 3.74086
rtoes -12.4573
lfemur -21.5861 0.12554 -16.8683
ltibia 67.0481
lfoot 13.2696 -11.0743
ltoes -20.2654
